HIERARCHY
ROOT Hips
{
	OFFSET 0.00000 0.00000 0.00000
	CHANNELS 6 Xposition Yposition Zposition Zrotation Yrotation Xrotation 
	JOINT LHipJoint
	{
		OFFSET 0 0 0
		CHANNELS 3 Zrotation Yrotation Xrotation
		JOINT LeftHip
		{
			OFFSET 1.37733 -1.58235 0.71371
			CHANNELS 3 Zrotation Yrotation Xrotation
			JOINT LeftKnee
			{
				OFFSET 2.33951 -6.42775 0.00000
				CHANNELS 3 Zrotation Yrotation Xrotation
				JOINT LeftAnkle
				{
					OFFSET 2.30523 -6.33358 0.00000
					CHANNELS 3 Zrotation Yrotation Xrotation
					JOINT LeftToe
					{
						OFFSET 0.05388 -0.14857 1.53863
						CHANNELS 3 Zrotation Yrotation Xrotation
						End Site
						{
							OFFSET 0.00000 -0.00000 0.79208
						}
					}
				}
			}
		}
	}
	JOINT RHipJoint
	{
		OFFSET 0 0 0
		CHANNELS 3 Zrotation Yrotation Xrotation
		JOINT RightHip
		{
			OFFSET -1.47839 -1.58235 0.71371
			CHANNELS 3 Zrotation Yrotation Xrotation
			JOINT RightKnee
			{
				OFFSET -2.26534 -6.22397 0.00000
				CHANNELS 3 Zrotation Yrotation Xrotation
				JOINT RightAnkle
				{
					OFFSET -2.27037 -6.23779 0.00000
					CHANNELS 3 Zrotation Yrotation Xrotation
					JOINT RightToe
					{
						OFFSET -0.09543 -0.26220 1.62615
						CHANNELS 3 Zrotation Yrotation Xrotation
						End Site
						{
							OFFSET -0.00000 -0.00000 0.83991
						}
					}
				}
			}
		}
	}
	JOINT lowerback
	{
		OFFSET 0 0 0
		CHANNELS 3 Zrotation Yrotation Xrotation
		JOINT Chest
		{
			OFFSET 0.00101 1.81877 -0.00412
			CHANNELS 3 Zrotation Yrotation Xrotation
			JOINT Chest2
			{
				OFFSET 0.00322 1.81934 -0.03962
				CHANNELS 3 Zrotation Yrotation Xrotation
				JOINT lowerneck
				{
					OFFSET 0 0 0
					CHANNELS 3 Zrotation Yrotation Xrotation
					JOINT Neck
					{
						OFFSET -0.13795 1.66192 0.22650
						CHANNELS 3 Zrotation Yrotation Xrotation
						JOINT Head
						{
							OFFSET 0.14844 1.65995 -0.39123
							CHANNELS 3 Zrotation Yrotation Xrotation
							End Site
							{
								OFFSET 0.04109 1.72502 -0.16783
							}
						}
					}
				}
				JOINT LeftCollar
				{
					OFFSET 0 0 0
					CHANNELS 3 Zrotation Yrotation Xrotation
					JOINT LeftShoulder
					{
						OFFSET 3.25446 1.41983 0.32106
CHANNELS 3 Zrotation Xrotation Yrotation
						JOINT LeftElbow
						{
OFFSET 0 -4.054440 -0.000000
CHANNELS 3 Zrotation Xrotation Yrotation
							JOINT LeftWrist
							{
OFFSET 0 -3.212050 0.000000
CHANNELS 3 Zrotation Xrotation Yrotation
								JOINT lhand
								{
									OFFSET 0 0 0
CHANNELS 3 Zrotation Xrotation Yrotation
									JOINT LFingers
									{
OFFSET 0 -0.707410 0.000000
CHANNELS 3 Zrotation Xrotation Yrotation
										End Site
										{
OFFSET 0 -0.570330 0.000000
										}
									}
								}
								JOINT LThumb
								{
OFFSET 0 0.000000 0.000000
CHANNELS 3 Zrotation Xrotation Yrotation
									End Site
									{
OFFSET 0 -0.579040 0.579040
									}
								}
							}
						}
					}
				}
				JOINT RightCollar
				{
					OFFSET 0 0 0
					CHANNELS 3 Zrotation Yrotation Xrotation
					JOINT RightShoulder
					{
						OFFSET -3.30007 1.25485 0.33947
CHANNELS 3 Zrotation Xrotation Yrotation
						JOINT RightElbow
						{
OFFSET 0 -3.740480 -0.000000
CHANNELS 3 Zrotation Xrotation Yrotation
							JOINT RightWrist
							{
OFFSET 0 -3.160300 0.000000
CHANNELS 3 Zrotation Xrotation Yrotation
								JOINT rhand
								{
									OFFSET 0 0 0
CHANNELS 3 Zrotation Xrotation Yrotation
									JOINT RFingers
									{
OFFSET 0 -0.717030 0.000000
CHANNELS 3 Zrotation Xrotation Yrotation
										End Site
										{
OFFSET 0 -0.578090 0.000000
										}
									}
								}
								JOINT RThumb
								{
OFFSET 0 0.000000 0.000000
CHANNELS 3 Zrotation Xrotation Yrotation
									End Site
									{
OFFSET 0 -0.586910 0.586910
									}
								}
							}
						}
					}
				}
			}
		}
	}
}
MOTION
Frames: 8
Frame Time: 0.008333333333333333
26.368600 16.420100 0.917100 -61.057800 86.243400 -53.586200 0.000000 0.000000 0.000000 -17.872200 -3.364700 3.927100 0.014500 0.778100 2.138600 -0.859100 17.055500 -0.464000 4.500000 -12.797500 -38.615200 0.000000 0.000000 0.000000 33.524600 27.278200 20.095200 -0.085800 1.888800 -5.198400 -5.861600 13.843400 -44.425500 -1.079000 -6.602500 18.542800 3.838400 0.534000 -7.107000 1.357500 0.397200 -0.723600 -0.712900 0.255000 3.253800 -4.590200 -3.467700 -26.557700 1.681700 -2.795700 39.270100 1.087500 -1.189300 19.944500 0.000000 -0.000000 0.000000 3.864800 -6.419300 -16.649400 8.139000 -13.777900 0.985000 25.301800 -12.131000 11.368900 0.000000 0.000000 0.000000 -7.125000 0.000000 0.000000 -1.283900 17.442800 -0.840200 0.000000 -0.000000 0.000000 2.491400 5.116800 22.731800 -13.131000 -21.478800 -2.501000 -30.987000 48.156600 -12.039000 0.000000 0.000000 0.000000 7.125000 0.000000 -0.000000 -2.605500 16.019400 -1.787200
26.368779 16.399067 0.914803 -53.776945 86.483310 -45.874484 0.000000 0.000000 0.000000 -18.489024 -3.592586 3.536690 0.014464 0.777059 2.135657 -0.881318 17.268203 -0.459154 4.504630 -12.803171 -38.636197 0.000000 0.000000 0.000000 32.616072 27.299018 19.489359 -0.086949 1.901470 -5.233432 -5.594483 15.713972 -43.412667 -0.692144 -4.314024 12.110782 3.372004 0.571185 -7.565248 1.229577 0.475016 -0.839678 -0.571912 0.289027 3.389189 -4.608793 -3.463249 -26.557485 1.711563 -2.791106 39.285032 1.107277 -1.185424 19.955088 0.000000 0.000000 0.000000 3.952379 -6.428919 -16.694625 8.223492 -13.914294 1.005387 25.380262 -12.469078 11.463658 0.000000 0.000000 0.000000 -7.125000 0.000000 0.000000 -1.234798 17.330742 -0.810875 0.000000 0.000000 0.000000 2.450231 5.142499 23.365494 -13.202248 -21.582639 -2.527274 -27.235627 45.740452 -14.398078 0.000000 0.000000 0.000000 7.125000 0.000000 0.000000 0.107951 13.951811 0.292916
26.368959 16.378033 0.912506 -46.496090 86.723220 -38.162768 0.000000 0.000000 0.000000 -19.105848 -3.820471 3.146280 0.014428 0.776018 2.132714 -0.903536 17.480906 -0.454309 4.509260 -12.808842 -38.657195 0.000000 0.000000 0.000000 31.707545 27.319836 18.883519 -0.088097 1.914141 -5.268463 -5.327366 17.584544 -42.399834 -0.305287 -2.025548 5.678765 2.905609 0.608371 -8.023496 1.101654 0.552833 -0.955757 -0.430923 0.323053 3.524578 -4.627385 -3.458798 -26.557269 1.741426 -2.786511 39.299963 1.127054 -1.181547 19.965677 0.000000 0.000000 0.000000 4.039959 -6.438539 -16.739851 8.307985 -14.050688 1.025775 25.458725 -12.807155 11.558416 0.000000 0.000000 0.000000 -7.125000 0.000000 0.000000 -1.185696 17.218683 -0.781551 0.000000 0.000000 0.000000 2.409061 5.168199 23.999187 -13.273496 -21.686478 -2.553548 -23.484254 43.324305 -16.757155 0.000000 0.000000 0.000000 7.125000 0.000000 0.000000 2.821402 11.884221 2.373032
26.369975 16.357015 0.910116 -37.785496 86.909903 -29.081019 0.000000 0.000000 0.000000 -19.794897 -4.025511 2.842510 0.014024 0.763980 2.099552 -0.927489 17.709989 -0.442291 4.513215 -12.813684 -38.675121 0.000000 0.000000 0.000000 30.765527 27.296582 18.351048 -0.090029 1.934797 -5.325566 -5.059497 19.279901 -41.392123 -0.037616 0.130280 -0.366937 2.387991 0.643306 -8.434077 0.960568 0.636347 -1.053612 -0.274000 0.358946 3.651120 -4.649057 -3.455331 -26.556255 1.771696 -2.782217 39.313090 1.147461 -1.178254 19.975021 0.000000 0.000000 0.000000 4.122147 -6.454378 -16.786259 8.384767 -14.174587 1.044357 25.532749 -13.122440 11.655654 0.000000 0.000000 0.000000 -7.125000 0.000000 0.000000 -1.139935 17.104290 -0.754368 0.000000 0.000000 0.000000 2.377322 5.132547 24.356643 -13.302576 -21.728796 -2.564324 -20.230587 41.065839 -18.510953 0.000000 0.000000 0.000000 7.125000 0.000000 0.000000 5.149735 10.399772 4.146714
26.374067 16.336054 0.907388 -23.822161 86.901038 -14.965892 0.000000 0.000000 0.000000 -20.749296 -4.146614 2.857047 0.012265 0.711540 1.955369 -0.957819 17.999252 -0.403921 4.514686 -12.815479 -38.681761 0.000000 0.000000 0.000000 29.700470 27.111409 18.088131 -0.094839 1.984797 -5.463755 -4.788862 20.331534 -40.403231 -0.207821 1.798773 -4.993349 1.682188 0.669974 -8.669536 0.771124 0.740796 -1.084516 -0.058534 0.401695 3.745160 -4.682043 -3.455474 -26.552307 1.803462 -2.779022 39.319587 1.170181 -1.177106 19.979795 0.000000 0.000000 0.000000 4.184529 -6.493071 -16.837012 8.433223 -14.252583 1.056310 25.590465 -13.353987 11.762006 0.000000 0.000000 0.000000 -7.125000 0.000000 0.000000 -1.106447 16.981320 -0.735058 0.000000 0.000000 0.000000 2.380229 4.871496 23.699224 -13.176734 -21.545095 -2.518166 -18.805449 39.386686 -18.041004 0.000000 0.000000 0.000000 7.125000 0.000000 0.000000 6.063180 11.057730 4.794586
26.378159 16.315092 0.904661 -9.858826 86.892172 -0.850766 0.000000 0.000000 0.000000 -21.703695 -4.267718 2.871584 0.010506 0.659101 1.811186 -0.988149 18.288515 -0.365551 4.516158 -12.817273 -38.688401 0.000000 0.000000 0.000000 28.635412 26.926236 17.825213 -0.099648 2.034796 -5.601943 -4.518228 21.383168 -39.414338 -0.378027 3.467267 -9.619762 0.976385 0.696643 -8.904995 0.581680 0.845245 -1.115420 0.156933 0.444444 3.839200 -4.715029 -3.455618 -26.548359 1.835227 -2.775828 39.326083 1.192902 -1.175957 19.984569 0.000000 0.000000 0.000000 4.246912 -6.531764 -16.887765 8.481679 -14.330579 1.068262 25.648181 -13.585534 11.868357 0.000000 0.000000 0.000000 -7.125000 0.000000 0.000000 -1.072958 16.858350 -0.715747 0.000000 0.000000 0.000000 2.383137 4.610445 23.041805 -13.050893 -21.361394 -2.472007 -17.380311 37.707532 -17.571055 0.000000 0.000000 0.000000 7.125000 0.000000 0.000000 6.976625 11.715687 5.442457
26.383111 16.298692 0.901641 2.612419 86.715126 11.589777 0.000000 0.000000 0.000000 -22.694356 -4.320505 3.090210 0.008671 0.596109 1.638006 -1.018402 18.572540 -0.325476 4.517108 -12.818423 -38.692645 0.000000 0.000000 0.000000 27.621930 26.593280 17.750520 -0.106209 2.099616 -5.781171 -4.276161 22.133582 -38.503347 -0.584111 4.802917 -13.366583 0.262304 0.715663 -8.968619 0.385723 0.942199 -1.094088 0.367577 0.482585 3.889621 -4.739429 -3.455408 -26.548803 1.858253 -2.772249 39.335329 1.209863 -1.174624 19.991800 0.000000 0.000000 0.000000 4.303227 -6.583804 -16.929517 8.515390 -14.384815 1.076590 25.685393 -13.790725 12.002447 0.000000 0.000000 0.000000 -7.125000 0.000000 0.000000 -1.055720 16.707105 -0.707849 0.000000 0.000000 0.000000 2.382604 4.331486 22.337710 -12.896853 -21.135256 -2.416387 -16.502090 35.880411 -16.551901 0.000000 0.000000 0.000000 7.125000 0.000000 0.000000 7.529181 12.867572 5.708444
26.389213 16.288391 0.898231 13.088805 86.313230 21.791473 0.000000 0.000000 0.000000 -23.733499 -4.281955 3.581695 0.006732 0.519011 1.426056 -1.048552 18.849564 -0.283123 4.517359 -12.818710 -38.693686 0.000000 0.000000 0.000000 26.677401 26.062743 17.927473 -0.115111 2.184252 -6.015266 -4.072288 22.481279 -37.696504 -0.838162 5.693569 -15.937431 -0.462846 0.724457 -8.802505 0.181061 1.029133 -1.002920 0.571773 0.514566 3.881725 -4.752351 -3.454726 -26.555120 1.869596 -2.768157 39.348251 1.219123 -1.173045 20.002317 0.000000 0.000000 0.000000 4.351432 -6.653688 -16.959237 8.529388 -14.407284 1.080071 25.695192 -13.960679 12.173621 0.000000 0.000000 0.000000 -7.125000 0.000000 0.000000 -1.060207 16.518055 -0.715207 0.000000 0.000000 0.000000 2.377471 4.028584 21.571212 -12.705111 -20.852382 -2.348119 -16.355071 33.855462 -14.798484 0.000000 0.000000 0.000000 7.125000 0.000000 0.000000 7.599244 14.679818 5.463868
